<?xml version="1.0" encoding="utf-8"?>
<!-- Generator: Adobe Illustrator 18.0.0, SVG Export Plug-In . SVG Version: 6.00 Build 0)  -->
<!DOCTYPE svg PUBLIC "-//W3C//DTD SVG 1.1//EN" "http://www.w3.org/Graphics/SVG/1.1/DTD/svg11.dtd">
<svg version="1.1" id="Capa_1" xmlns="http://www.w3.org/2000/svg" xmlns:xlink="http://www.w3.org/1999/xlink" x="0px" y="0px"
	 viewBox="0 0 960 560" enable-background="new 0 0 960 560" xml:space="preserve">
<path fill="none" stroke="#FFFFFF" stroke-width="2" stroke-linecap="round" stroke-linejoin="round" stroke-miterlimit="10" d="
	M494.4,274.9c-2.8-6.6-7.4-11.6-9.7-10.7c-3.9,1.6,2.3,9.3-16.9,17.1c-1.7,0.7-2.1,3.4-1.4,5c0.7,1.6,3,3.2,4.6,2.6
	c0.3-0.1,1.3-0.5,1.3-0.5c1.2,1.6,2.4,0.6,2.9,1.7c0.5,1.2,1.7,3.9,2.1,4.8c0.4,0.9,1.3,1.7,1.9,1.5c0.6-0.2,2.8-1.1,3.7-1.4
	c0.8-0.3,1-1.1,0.8-1.7c-0.3-0.6-1.4-0.8-1.7-1.6c-0.3-0.7-1.4-3.1-1.7-3.9c-0.4-1,0.5-1.8,1.7-2c8.8-0.9,10.4,4.5,13.4,3.3
	C497.7,288.2,497.2,281.5,494.4,274.9L494.4,274.9z M493.4,285.6c-0.5,0.2-4-2.5-6.2-7.6c-2.2-5.1-1.9-9.8-1.4-10
	c0.5-0.2,3.9,3.1,6.1,8.2C494.1,281.2,493.9,285.4,493.4,285.6L493.4,285.6z M493.4,285.6"/>
</svg>
