<?xml version="1.0" encoding="UTF-8" standalone="no"?>
<!-- Generator: Adobe Illustrator 18.0.0, SVG Export Plug-In . SVG Version: 6.00 Build 0)  -->

<svg
   xmlns:dc="http://purl.org/dc/elements/1.1/"
   xmlns:cc="http://creativecommons.org/ns#"
   xmlns:rdf="http://www.w3.org/1999/02/22-rdf-syntax-ns#"
   xmlns:svg="http://www.w3.org/2000/svg"
   xmlns="http://www.w3.org/2000/svg"
   xmlns:sodipodi="http://sodipodi.sourceforge.net/DTD/sodipodi-0.dtd"
   xmlns:inkscape="http://www.inkscape.org/namespaces/inkscape"
   version="1.1"
   id="Capa_1"
   x="0px"
   y="0px"
   viewBox="0 0 960 560"
   enable-background="new 0 0 960 560"
   xml:space="preserve"
   inkscape:version="0.91 r13725"
   sodipodi:docname="diagnostics-icons.svg"><metadata
     id="metadata117"><rdf:RDF><cc:Work
         rdf:about=""><dc:format>image/svg+xml</dc:format><dc:type
           rdf:resource="http://purl.org/dc/dcmitype/StillImage" /><dc:title></dc:title></cc:Work></rdf:RDF></metadata><defs
     id="defs115" /><sodipodi:namedview
     pagecolor="#cccccc"
     bordercolor="#666666"
     borderopacity="1"
     objecttolerance="10"
     gridtolerance="10"
     guidetolerance="10"
     inkscape:pageopacity="0"
     inkscape:pageshadow="2"
     inkscape:window-width="1280"
     inkscape:window-height="972"
     id="namedview113"
     showgrid="false"
     inkscape:zoom="0.75416667"
     inkscape:cx="426.99622"
     inkscape:cy="394.08456"
     inkscape:window-x="-8"
     inkscape:window-y="-8"
     inkscape:window-maximized="1"
     inkscape:current-layer="Capa_1" /><path
     style="fill:#ffffff"
     d="m 102.86518,81.222006 a 25,25 0 0 0 -24.999996,25.000004 25,25 0 0 0 24.999996,25 25,25 0 0 0 25,-25 25,25 0 0 0 -25,-25.000004 z m -15.599606,17.09961 c 13.599996,0.6 16.399996,10.600004 16.999996,14.500004 0.1,0.8 -0.40156,1.5 -1.10156,1.5 -10.099996,-0.1 -15.198436,-9.99922 -16.898436,-14.19922 -0.3,-0.900004 0.3,-1.900784 1,-1.800784 z m 31.499996,4.201174 c 0.5,0 0.89922,0.80039 0.69922,1.40039 -1.2,3.1 -4.90078,10.19883 -12.30078,10.29883 -0.5,0 -0.89883,-0.49961 -0.79883,-1.09961 0.4,-2.8 2.50039,-10.09961 12.40039,-10.59961 z"
     id="circle5"
     inkscape:connector-curvature="0"
     inkscape:export-xdpi="90"
     inkscape:export-ydpi="90" /><path
     style="fill:#ffffff"
     d="M 218.30078 170.40039 A 25 25 0 0 0 193.30078 195.40039 A 25 25 0 0 0 218.30078 220.40039 A 25 25 0 0 0 243.30078 195.40039 A 25 25 0 0 0 218.30078 170.40039 z M 206.40039 184.09961 L 230.19922 184.09961 C 232.69922 184.09961 234.69922 186.09961 234.69922 188.59961 L 234.69922 202.30078 C 234.69922 204.70078 232.69922 206.80078 230.19922 206.80078 L 206.40039 206.80078 C 203.90039 206.80078 201.90039 204.80078 201.90039 202.30078 L 201.90039 188.59961 C 201.90039 186.09961 203.90039 184.09961 206.40039 184.09961 z M 206.40039 186 C 206.09814 186 205.81311 186.0598 205.54688 186.1543 L 217.19922 196.80078 C 217.79922 197.30078 218.59922 197.30078 219.19922 196.80078 L 230.9043 186.10938 C 230.68014 186.04515 230.4465 186 230.19922 186 L 206.40039 186 z M 232.47266 187.45703 L 224.63281 194.61523 L 232.65625 202.63867 C 232.6808 202.49575 232.69922 202.35011 232.69922 202.19922 L 232.69922 188.5 C 232.69922 188.12437 232.61558 187.77402 232.47266 187.45703 z M 204.07227 187.58789 C 203.96401 187.87022 203.90039 188.17547 203.90039 188.5 L 203.90039 202.19922 C 203.90039 202.53478 203.96666 202.8525 204.08203 203.14258 L 212.20703 195.01758 L 204.07227 187.58789 z M 223.15625 195.9668 L 220.59961 198.30078 C 219.79961 198.90078 218.99961 199.19922 218.09961 199.19922 C 217.29961 199.19922 216.40078 198.90078 215.80078 198.30078 L 213.68555 196.36719 L 205.51758 204.53516 C 205.79182 204.63633 206.08715 204.69922 206.40039 204.69922 L 230.19922 204.69922 C 230.68706 204.69922 231.13449 204.55945 231.51562 204.32617 L 223.15625 195.9668 z "
     id="circle15" /><path
     style="fill:#ffffff"
     d="M 138.69922 156.80078 A 25 25 0 0 0 113.69922 181.80078 A 25 25 0 0 0 138.69922 206.80078 A 25 25 0 0 0 163.69922 181.80078 A 25 25 0 0 0 138.69922 156.80078 z M 135.30078 168.94922 C 138.60078 168.94922 141.90039 170.19922 144.40039 172.69922 C 146.80039 175.09922 148.09922 178.20039 148.19922 181.40039 L 147 180.5 C 146.9 180.4 146.90039 180.19961 146.90039 180.09961 C 146.60039 177.89961 145.6 175.8 144 174 L 143.09961 173.09961 C 141.39961 171.49961 139.2 170.49922 137 170.19922 C 136.6 170.19922 136.20078 170.09961 135.80078 170.09961 C 132.80078 169.99961 129.80039 170.99961 127.40039 173.09961 L 126.5 174 C 124.4 176.4 123.4 179.40039 123.5 182.40039 C 123.5 182.80039 123.49961 183.19961 123.59961 183.59961 C 123.89961 185.79961 124.9 187.89922 126.5 189.69922 L 127.40039 190.59961 C 129.10039 192.19961 131.3 193.2 133.5 193.5 C 133.9 193.5 134.29922 193.59961 134.69922 193.59961 C 137.39922 193.69961 140.2 192.79961 142.5 191.09961 L 142.59961 192.40039 C 137.59961 195.90039 130.69922 195.40039 126.19922 190.90039 C 121.19922 185.90039 121.19922 177.69922 126.19922 172.69922 C 128.69922 170.19922 132.00078 168.94922 135.30078 168.94922 z M 135.40039 171.30078 C 135.20039 172.00078 134.89961 172.60078 134.59961 173.30078 C 133.29961 172.70078 132.00078 172.29922 130.80078 172.19922 C 132.30078 171.59922 133.80039 171.30078 135.40039 171.30078 z M 136.69922 171.40039 C 138.69922 171.70039 140.59961 172.5 142.09961 174 L 139.40039 176.69922 C 138.20039 175.49922 136.99922 174.60039 135.69922 173.90039 C 136.19922 173.00039 136.49922 172.20039 136.69922 171.40039 z M 130.06836 173.44141 C 131.20312 173.37695 132.5625 173.71289 134 174.40039 C 133.4 175.40039 132.59922 176.40039 131.69922 177.40039 L 128.30078 174 C 128.78828 173.6625 129.3875 173.48008 130.06836 173.44141 z M 127.40039 174.80078 L 130.80078 178.19922 C 129.80078 179.09922 128.80078 179.9 127.80078 180.5 C 126.80078 178.3 126.60039 176.20078 127.40039 174.80078 z M 143.09961 174.80078 C 144.29961 176.20078 145 177.70078 145.5 179.30078 L 141.80078 176.5 L 141.90039 179.19922 C 141.40039 178.59922 140.90039 178.1 140.40039 177.5 L 143.09961 174.80078 z M 135.09961 174.90039 C 136.19961 175.60039 137.4 176.5 138.5 177.5 L 135.19922 180.80078 L 132.59961 178.19922 C 133.59961 177.19922 134.39961 176.10039 135.09961 174.90039 z M 125.69922 177.5 C 125.69922 178.6 126.09922 179.89922 126.69922 181.19922 C 125.99922 181.49922 125.29922 181.8 124.69922 182 C 124.69922 180.4 124.99922 178.9 125.69922 177.5 z M 139.40039 178.40039 C 140.40039 179.50039 141.20039 180.59922 141.90039 181.69922 L 141.90039 181.90039 C 140.80039 182.60039 139.69922 183.40039 138.69922 184.40039 L 136.09961 181.69922 L 139.40039 178.40039 z M 143 179 L 155 188 L 149.80078 189.09961 L 152 193.09961 L 149.80078 194.69922 L 147.30078 190.5 L 143.80078 194.69922 L 143 179 z M 131.69922 179.19922 L 134.30078 181.80078 L 131 185.09961 C 129.9 183.99961 129.10039 182.89922 128.40039 181.69922 C 129.50039 180.99922 130.59922 180.19922 131.69922 179.19922 z M 127.30078 182.30078 C 128.00078 183.50078 128.99961 184.8 130.09961 186 L 127.30078 188.80078 C 125.90078 187.20078 125.10078 185.30078 124.80078 183.30078 C 125.60078 183.00078 126.50078 182.70078 127.30078 182.30078 z M 135.19922 182.69922 L 137.80078 185.30078 C 136.80078 186.40078 136.00078 187.49961 135.30078 188.59961 C 134.20078 187.89961 133.00039 187 131.90039 186 L 135.19922 182.69922 z M 142.09961 183.40039 L 142.30078 187.90039 L 139.69922 185.30078 C 140.49922 184.60078 141.29961 183.90039 142.09961 183.40039 z M 138.69922 186.19922 L 142.09961 189.59961 C 140.79961 190.39961 138.70039 190.19922 136.40039 189.19922 C 137.00039 188.19922 137.79922 187.19922 138.69922 186.19922 z M 131 186.90039 C 132.2 188.10039 133.39922 188.99922 134.69922 189.69922 C 134.29922 190.49922 134.00078 191.39961 133.80078 192.09961 C 131.80078 191.89961 129.90078 190.99961 128.30078 189.59961 L 131 186.90039 z M 135.80078 190.30078 C 137.10078 190.90078 138.39961 191.20039 139.59961 191.40039 C 138.09961 192.00039 136.6 192.30078 135 192.30078 C 135.2 191.60078 135.50078 191.00078 135.80078 190.30078 z "
     id="circle39"
     inkscape:export-xdpi="90"
     inkscape:export-ydpi="90" /><path
     style="fill:#ffffff"
     d="m 233.21238,107.3037 a 25,25 0 0 0 -25,25 25,25 0 0 0 25,25 25,25 0 0 0 25,-25 25,25 0 0 0 -25,-25 z m -9.5,10.59961 c 2.7,0 4.89844,2.20039 4.89844,4.90039 0,2.7 -2.19844,4.90039 -4.89844,4.90039 -2.7,0 -4.90039,-2.10039 -4.90039,-4.90039 0,-2.7 2.20039,-4.90039 4.90039,-4.90039 z m 19,0 c 2.7,0 4.89844,2.20039 4.89844,4.90039 0,2.7 -2.19844,4.90039 -4.89844,4.90039 -2.7,0 -4.90039,-2.10039 -4.90039,-4.90039 0,-2.7 2.20039,-4.90039 4.90039,-4.90039 z m -18.5,1 c -0.6,0 -0.90117,0.29961 -1.20117,0.59961 -0.3,0.3 -0.29883,0.90117 -0.29883,1.20117 l 0,0.79883 -0.80078,0 0,1 0.80078,0 0,4 1.5,0 0,-4 1.19922,0 0.0996,-1.09961 -1.29883,0 0,-0.90039 c 0,-0.3 0.29961,-0.40039 0.59961,-0.40039 0.3,0 0.59961,0.10156 0.59961,0.10156 l 0.19922,-1.20117 c 0,0 -0.39844,-0.0996 -1.39844,-0.0996 z m 20,1.40039 c -0.8,0 -1.40039,0.60039 -1.40039,1.40039 l 0,0.29883 c -1.2,-0.1 -2.3,-0.6 -3,-1.5 -0.1,0.2 -0.20117,0.40117 -0.20117,0.70117 0,0.5 0.20156,0.89922 0.60156,1.19922 -0.3,0 -0.50117,-0.0992 -0.70117,-0.19922 0,0.7 0.50117,1.29844 1.20117,1.39844 -0.1,0.1 -0.30039,0.10156 -0.40039,0.10156 l -0.30078,0 c 0.1,0.6 0.70078,1 1.30078,1 -0.5,0.4 -1.10078,0.59961 -1.80078,0.59961 -0.1,0 -0.19961,-7.8e-4 -0.0996,0.19922 0.6,0.4 1.39922,0.59961 2.19922,0.59961 2.6,0 4.10156,-2.19961 4.10156,-4.09961 l 0,-0.19922 c 0.3,-0.2 0.49922,-0.40117 0.69922,-0.70117 -0.2,0.1 -0.50078,0.20117 -0.80078,0.20117 0.3,-0.2 0.50156,-0.50078 0.60156,-0.80078 l -0.90039,0.30078 c -0.3,-0.3 -0.69961,-0.5 -1.09961,-0.5 z m -9.5,2.29883 0.19922,0 c 0,0.1 -0.10078,0.10078 -0.30078,0.30078 -0.2,0.2 -0.2,0.3 0,0.5 0.1,0 0.30078,0.2 0.80078,0.5 0.3,0.1 0.80078,0.60078 0.80078,1.30078 l 0,2 c 0,0.3 -7.8e-4,0.49883 0.19922,0.29883 0.4,0 0.39922,0.50078 0.19922,0.80078 0,0.5 7.8e-4,0.49883 -0.19922,0.79883 0,0.2 -0.19922,0.20117 -0.19922,0.20117 0,0.3 -0.20117,1.3 -0.70117,2 0,0.1 -0.19922,0.0988 -0.19922,0.29883 0,0.2 -7.8e-4,0.50117 0.19922,1.20117 0.2,0.2 0.001,0.19922 0.20117,0.19922 0.3,0 0.29883,0.2 0.29883,0.5 0,0.7 0.3,1 0.5,1 1.4,0.4 2.7,0.80117 4,1.20117 -1.5,2.4 -4.29883,3.99961 -7.29883,4.09961 -3.1,0 -5.80039,-1.50039 -7.40039,-3.90039 1,-0.3 3.10039,-1.00078 3.90039,-1.30078 0.2,0 0.5,-0.5 0.5,-1 0,-0.3 -0.001,-0.5 0.29883,-0.5 0.2,0 0.20117,-0.19922 0.20117,-0.19922 0.2,-0.4 0.19922,-0.89922 0.19922,-1.19922 0,-0.1 -0.19922,-0.30078 -0.19922,-0.30078 -0.4,-0.5 -0.50117,-1.5 -0.70117,-2 0,0 -0.19922,7.8e-4 -0.19922,-0.19922 -0.1,-0.3 -0.30078,-0.50078 -0.30078,-0.80078 0,-0.1 -0.29883,-0.80078 0.20117,-0.80078 0.2,0.1 0.19922,7.8e-4 0.19922,-0.19922 l 0,-2 c 0,-0.7 0.30078,-1.2 0.80078,-1.5 0.6,-0.5 1.49883,-0.8 2.29883,-1 0.5,-0.1 1.50117,-0.30078 1.70117,-0.30078 z m -11,14.30078 c 2.7,0 4.89844,2.10039 4.89844,4.90039 0,2.7 -2.19844,4.90039 -4.89844,4.90039 -2.7,0 -4.90039,-2.20039 -4.90039,-4.90039 0,-2.7 2.20039,-4.90039 4.90039,-4.90039 z m 19,0 c 2.7,0 4.79844,2.10039 4.89844,4.90039 0,2.7 -2.19844,4.90039 -4.89844,4.90039 -2.7,0 -4.90039,-2.20039 -4.90039,-4.90039 0,-2.7 2.20039,-4.90039 4.90039,-4.90039 z m -1.40039,2.30078 c -1.5,0 -2.70117,1.19922 -2.70117,2.69922 0,1.5 1.20117,2.69922 2.70117,2.69922 2.2,0 2.69961,-1.89922 2.59961,-3.19922 -0.6,-0.1 -2.59961,-0.0996 -2.59961,-0.0996 l 0,1.09961 1.40039,0 c -0.2,0.7 -0.60039,1.09961 -1.40039,1.09961 -0.9,0 -1.59961,-0.69961 -1.59961,-1.59961 0,-0.9 0.69961,-1.59961 1.59961,-1.59961 0.5,0 0.8,0.20039 1,0.40039 l 0.79883,-0.80078 c -0.5,-0.4 -1.09883,-0.69922 -1.79883,-0.69922 z m -20,0.19922 c -0.5,0 -1,0.4 -1,1 l 0,2.80078 c 0,0.5 0.4,1 1,1 l 4.79883,0 c 0.5,0 1,-0.4 1,-1 l 0,-2.80078 c 0,-0.5 -0.4,-1 -1,-1 l -4.79883,0 z m 1.59961,0.90039 2,1.29883 -2,1.30078 0,-2.59961 z m 22.5,0.0996 0,0.90039 -0.90039,0 0,0.69922 0.90039,0 0,0.90039 0.69922,0 0,-0.90039 0.90039,0 0,-0.69922 -0.90039,0 0,-0.90039 -0.69922,0 z"
     id="circle79"
     inkscape:connector-curvature="0"
     inkscape:export-xdpi="90"
     inkscape:export-ydpi="90" /><path
     style="fill:#ffffff"
     d="M 134.80078 239.69922 A 25 25 0 0 0 109.80078 264.69922 A 25 25 0 0 0 134.80078 289.69922 A 25 25 0 0 0 159.80078 264.69922 A 25 25 0 0 0 134.80078 239.69922 z M 132.55078 251.75 C 135.32578 251.75 138.09922 252.80039 140.19922 254.90039 C 143.89922 258.60039 144.3 264.3 141.5 268.5 L 147 274 C 147.9 274.8 147.9 276.19961 147 277.09961 C 146.2 277.99961 144.80039 277.99961 143.90039 277.09961 L 138.40039 271.59961 C 134.20039 274.29961 128.60039 273.89922 124.90039 270.19922 C 120.70039 265.89922 120.70039 259.10039 124.90039 254.90039 C 127.00039 252.80039 129.77578 251.75 132.55078 251.75 z M 132.59961 254.94922 C 130.64961 254.94922 128.69922 255.69922 127.19922 257.19922 C 124.19922 260.19922 124.19922 265 127.19922 268 C 130.19922 271 135 271 138 268 C 141 265 141 260.09922 138 257.19922 C 136.5 255.69922 134.54961 254.94922 132.59961 254.94922 z "
     id="circle105"
     inkscape:export-xdpi="90"
     inkscape:export-ydpi="90" /></svg>