<?xml version="1.0" encoding="utf-8"?>
<!-- Generator: Adobe Illustrator 18.0.0, SVG Export Plug-In . SVG Version: 6.00 Build 0)  -->
<!DOCTYPE svg PUBLIC "-//W3C//DTD SVG 1.1//EN" "http://www.w3.org/Graphics/SVG/1.1/DTD/svg11.dtd">
<svg version="1.1" id="Capa_1" xmlns="http://www.w3.org/2000/svg" xmlns:xlink="http://www.w3.org/1999/xlink" x="0px" y="0px"
	 viewBox="0 0 190 212" enable-background="new 0 0 190 212" xml:space="preserve">
<g>
	<circle fill="#395792" cx="95" cy="96.2" r="93.2"/>
	<path fill="#FFFFFF" d="M78.4,78.6h7.1v-6.9c0-3.1,0.1-7.8,2.3-10.7c2.3-3.1,5.6-5.2,11.1-5.2c9,0,12.8,1.3,12.8,1.3l-1.8,10.6
		c0,0-3-0.9-5.7-0.9c-2.8,0-5.3,1-5.3,3.8v8.1h11.4l-0.8,10.3H98.8v35.8H85.5V88.9h-7.1V78.6z"/>
	<g>
		<g>
			<g>
				<path fill="#FFFFFF" d="M141.2,150.9l-32.6,0c0,0,1.9-7.7,2.2-11.4c0.2-2.5,0.3-4.9-0.3-7.4c-0.8-3.7-1.8-6-3.3-8.8
					c-0.8-1.5-2.4-2.4-4.1-2.4h-6.3c-2.5,0-4.6,2.1-4.6,4.6c0,4.3,0,9.9-0.1,10.1c-2.5,5.2-5.4,10.2-8.6,15c-1.5,2.2-3,4.3-4.8,6.2
					c-0.8,0.8-1.2,2-1.2,3.1V200c0,1.2,0.5,2.3,1.3,3.2c1.2,1.3,3.4,2.8,7.1,2.8c11.4,0,29.9-0.1,43.1-0.1c1.6,0,3.2-0.9,4-2.3
					l11.6-19.9c0.8-1.4,1.2-2.9,1.2-4.5l0.1-23.8C145.8,152.9,143.7,150.9,141.2,150.9L141.2,150.9z M141.2,150.9"/>
				<path fill="#383A35" d="M85.9,209L85.9,209c-4.7,0-7.6-2-9.2-3.7c-1.4-1.4-2.1-3.3-2.1-5.3v-40.1c0-1.9,0.7-3.8,2-5.2
					c1.8-2,3.4-4.2,4.5-5.9c3.1-4.5,5.8-9.2,8.1-14.1c0-1.1,0-4.2,0-9.3c0-2,0.8-4,2.2-5.4c1.4-1.4,3.3-2.2,5.4-2.2h6.3
					c2.8,0,5.4,1.5,6.7,4c1.5,2.9,2.6,5.4,3.6,9.6c0.7,3,0.6,6.1,0.3,8.3c-0.2,2.1-0.9,5.5-1.5,8.1l28.9,0c4.2,0,7.6,3.4,7.6,7.6
					l-0.1,23.8c0,2.1-0.6,4.2-1.6,6l-11.6,19.9c-1.3,2.3-3.9,3.8-6.6,3.8c0,0,0,0,0,0c-11.6-0.1-27,0-38.4,0L85.9,209z M96.8,123.8
					c-0.4,0-0.8,0.2-1.1,0.5c-0.3,0.3-0.5,0.7-0.5,1.1c0,10.6,0,10.6-0.4,11.4c-2.5,5.3-5.5,10.5-8.8,15.4c-1.3,1.9-3,4.3-5.1,6.6
					c-0.3,0.3-0.4,0.7-0.4,1.1V200c0,0.4,0.2,0.8,0.4,1.1c1.2,1.2,2.8,1.9,4.9,1.9l4.7,0c11.4,0,26.9-0.1,38.4,0
					c0.6,0,1.1-0.3,1.4-0.8l11.6-19.9c0.5-0.9,0.8-2,0.8-3l0.1-23.8c0-0.9-0.7-1.6-1.6-1.6l-36.4,0l0.9-3.7c0-0.1,1.8-7.6,2.2-10.9
					c0.2-1.9,0.3-4.2-0.2-6.4c-0.8-3.5-1.7-5.6-3-8.1c-0.3-0.5-0.8-0.8-1.4-0.8H96.8z"/>
			</g>
		</g>
		<g>
			<g>
				<path fill="#FFFFFF" d="M72.9,157.4h-4.1c-2.5,0-4.6,2.1-4.6,4.6v39.4c0,2.5,2.1,4.6,4.6,4.6h4.1c2.5,0,4.6-2.1,4.6-4.6V162
					C77.5,159.5,75.5,157.4,72.9,157.4L72.9,157.4z M72.9,157.4"/>
				<path fill="#383A35" d="M72.9,209h-4.1c-4.2,0-7.6-3.4-7.6-7.6V162c0-4.2,3.4-7.6,7.6-7.6h4.1c2,0,3.9,0.8,5.4,2.2
					c1.4,1.4,2.2,3.3,2.2,5.4v39.4C80.5,205.6,77.1,209,72.9,209z M68.8,160.4c-0.9,0-1.6,0.7-1.6,1.6v39.4c0,0.9,0.7,1.6,1.6,1.6
					h4.1c0.9,0,1.6-0.7,1.6-1.6V162c0-0.4-0.2-0.8-0.5-1.1c-0.3-0.3-0.7-0.5-1.1-0.5H68.8z"/>
			</g>
		</g>
	</g>
</g>
</svg>
