<?xml version="1.0" encoding="UTF-8" standalone="no"?>
<!-- Generator: Adobe Illustrator 18.0.0, SVG Export Plug-In . SVG Version: 6.00 Build 0)  -->

<svg
   xmlns:dc="http://purl.org/dc/elements/1.1/"
   xmlns:cc="http://creativecommons.org/ns#"
   xmlns:rdf="http://www.w3.org/1999/02/22-rdf-syntax-ns#"
   xmlns:svg="http://www.w3.org/2000/svg"
   xmlns="http://www.w3.org/2000/svg"
   xmlns:sodipodi="http://sodipodi.sourceforge.net/DTD/sodipodi-0.dtd"
   xmlns:inkscape="http://www.inkscape.org/namespaces/inkscape"
   version="1.1"
   id="Capa_1"
   x="0px"
   y="0px"
   viewBox="0 0 960 560"
   enable-background="new 0 0 960 560"
   xml:space="preserve"
   inkscape:version="0.91 r13725"
   sodipodi:docname="register-icons.svg"><metadata
     id="metadata35"><rdf:RDF><cc:Work
         rdf:about=""><dc:format>image/svg+xml</dc:format><dc:type
           rdf:resource="http://purl.org/dc/dcmitype/StillImage" /></cc:Work></rdf:RDF></metadata><defs
     id="defs33" /><sodipodi:namedview
     pagecolor="#ffffff"
     bordercolor="#666666"
     borderopacity="1"
     objecttolerance="10"
     gridtolerance="10"
     guidetolerance="10"
     inkscape:pageopacity="0"
     inkscape:pageshadow="2"
     inkscape:window-width="1280"
     inkscape:window-height="972"
     id="namedview31"
     showgrid="false"
     inkscape:zoom="1.0665527"
     inkscape:cx="458.34644"
     inkscape:cy="275.76288"
     inkscape:window-x="-8"
     inkscape:window-y="-8"
     inkscape:window-maximized="1"
     inkscape:current-layer="Capa_1" /><g
     id="g4175"
     inkscape:export-xdpi="90"
     inkscape:export-ydpi="90"><rect
       id="rect3"
       height="60.6"
       width="60.6"
       fill="#FF8300"
       y="294.3"
       x="450.4" /><g
       id="g5"><path
         id="path7"
         d="M491.3,320.9h-0.5v-3.3c0-5.7-4.6-10.4-10.2-10.4s-10.2,4.7-10.2,10.4v3.3h-0.5c-1.8,0-3.2,1.5-3.2,3.3   v14.5c0,1.8,1.4,3.3,3.2,3.3h21.3c1.8,0,3.2-1.5,3.2-3.3v-14.5C494.6,322.4,493.1,320.9,491.3,320.9L491.3,320.9z M472.7,317.6   c0-4.5,3.6-8.2,8-8.2c4.4,0,8,3.7,8,8.2v3.3h-1.6v-3.3c0-3.6-2.8-6.6-6.3-6.6c-3.5,0-6.3,3-6.3,6.6v3.3h-1.6V317.6z M476.5,320.9   v-3.3c0-2.4,1.9-4.4,4.2-4.4s4.2,2,4.2,4.4v3.3H476.5z M492.4,338.7c0,0.6-0.5,1.1-1,1.1h-21.3c-0.6,0-1-0.5-1-1.1v-14.5   c0-0.6,0.5-1.1,1-1.1h21.3c0.6,0,1,0.5,1,1.1V338.7z M492.4,338.7"
         fill="#FFFFFF" /><path
         id="path9"
         d="M483.9,329.2c0-1.8-1.4-3.2-3.2-3.2c-1.8,0-3.2,1.4-3.2,3.2c0,0.9,0.4,1.7,1,2.3l-0.8,3.4   c0,0.1,0,0.2,0,0.2c0,0.9,0.9,1.7,2.1,1.7h1.7c1.2,0,2.1-0.7,2.1-1.7c0-0.1,0-0.2,0-0.2l-0.8-3.4   C483.5,331,483.9,330.1,483.9,329.2L483.9,329.2z M480,334.7l0.7-3l0.7,3H480z M481.2,330.1c-0.2,0.1-0.4,0.3-0.5,0.5   c-0.1-0.2-0.3-0.4-0.5-0.5c-0.3-0.2-0.6-0.5-0.6-0.9c0-0.6,0.5-1,1-1c0.6,0,1,0.5,1,1C481.7,329.6,481.5,329.9,481.2,330.1   L481.2,330.1z M481.2,330.1"
         fill="#FFFFFF" /></g></g><g
     id="g4163"
     inkscape:export-xdpi="90"
     inkscape:export-ydpi="90"><rect
       id="rect11"
       height="60.6"
       width="60.6"
       fill="#FF8300"
       y="205.1"
       x="450.9" /><g
       id="g13"><g
         id="g15"><path
           id="path17"
           d="M494,247.6h-25.5c-2.7,0-4.9-2.2-4.9-4.9V228c0-2.7,2.2-4.9,4.9-4.9H494c2.7,0,4.9,2.2,4.9,4.9v14.7    C498.8,245.4,496.7,247.6,494,247.6z M468.4,225.3c-1.5,0-2.7,1.2-2.7,2.7v14.7c0,1.5,1.2,2.7,2.7,2.7H494c1.5,0,2.7-1.2,2.7-2.7    V228c0-1.5-1.2-2.7-2.7-2.7H468.4z"
           fill="#FFFFFF" /></g><g
         id="g19"><path
           id="path21"
           d="M481,239.5c-0.9,0-1.8-0.3-2.5-1L465,226l1.5-1.6l13.6,12.5c0.6,0.5,1.5,0.5,2.1,0l13.6-12.5l1.5,1.6    l-13.6,12.5C482.8,239.1,481.9,239.5,481,239.5z"
           fill="#FFFFFF" /></g><g
         id="g23"><rect
           id="rect25"
           height="14.8"
           width="2.1"
           fill="#FFFFFF"
           transform="matrix(0.7071 0.7071 -0.7071 0.7071 307.7358 -262.6993)"
           y="232.7"
           x="469.9" /></g><g
         id="g27"><rect
           id="rect29"
           height="2.1"
           width="14.8"
           fill="#FFFFFF"
           transform="matrix(0.7071 0.7071 -0.7071 0.7071 313.879 -277.584)"
           y="239"
           x="484.6" /></g></g></g></svg>