<?xml version="1.0" encoding="utf-8"?>
<!-- Generator: Adobe Illustrator 18.0.0, SVG Export Plug-In . SVG Version: 6.00 Build 0)  -->
<!DOCTYPE svg PUBLIC "-//W3C//DTD SVG 1.1//EN" "http://www.w3.org/Graphics/SVG/1.1/DTD/svg11.dtd">
<svg version="1.1" id="Capa_1" xmlns="http://www.w3.org/2000/svg" xmlns:xlink="http://www.w3.org/1999/xlink" x="0px" y="0px"
	 viewBox="0 0 190 212" enable-background="new 0 0 190 212" xml:space="preserve">
<g>
	<circle fill="#36B9FF" cx="95" cy="98.4" r="93.2"/>
	<g>
		<path fill="#FFFFFF" d="M68.4,79.9c0-6,0.2-12-0.1-18c-0.3-5.9,4.5-9.7,9-9.8c5.4-0.1,9.6,4.1,9.8,9.7c0,1.8,0,3.6,0,5.4
			c-0.1,2,0.9,2.5,2.7,2.5c7.5,0,15.1-0.1,22.6,0c5.6,0.1,9.6,4.4,9.4,9.8c-0.2,4.9-4.5,8.8-9.4,8.8c-7.4-0.1-14.8-0.1-22.2,0
			c-2.7,0-3,0.3-3,3c0,1.6,0,3.2,0,4.8c0.1,5,3.3,8.2,8.3,8.3c5.7,0.1,11.4,0,17.2,0c4.4,0,8,2.9,8.9,7.1c1,4.3-1,8.7-4.9,10.5
			c-1.3,0.6-2.8,1-4.2,1c-6.8,0-13.7,0.2-20.5-0.4c-10-0.8-16.7-6.6-21.2-15.2c-1.7-3.3-2.3-6.9-2.2-10.5
			C68.4,91.2,68.4,85.6,68.4,79.9z"/>
	</g>
	<g>
		<path fill="#FFFFFF" d="M149.1,135.3c-3.4,1.5-7,2.5-10.8,3c3.9-2.3,6.8-6,8.2-10.4c-3.6,2.2-7.6,3.7-11.9,4.5
			c-3.4-3.6-8.3-5.9-13.7-5.9c-10.4,0-18.8,8.4-18.8,18.8c0,1.5,0.2,2.9,0.5,4.3c-15.6-0.8-29.4-8.2-38.6-19.6
			c-1.6,2.8-2.5,6-2.5,9.4c0,6.5,3.3,12.2,8.4,15.6c-3.1-0.1-6-1-8.5-2.3v0.2c0,9.1,6.5,16.7,15.1,18.4c-1.6,0.4-3.2,0.7-4.9,0.7
			c-1.2,0-2.4-0.1-3.5-0.3c2.4,7.4,9.3,12.9,17.5,13c-6.4,5-14.5,8-23.3,8c-1.5,0-3-0.1-4.5-0.3c8.3,5.3,18.2,8.4,28.7,8.4
			c34.5,0,53.4-28.6,53.4-53.4c0-0.8,0-1.6,0-2.4C143.4,142.3,146.6,139,149.1,135.3z"/>
		<path fill="#383A35" d="M121,126.5c5.4,0,10.3,2.3,13.7,5.9c4.3-0.8,8.3-2.4,11.9-4.5c-1.4,4.4-4.4,8-8.2,10.4
			c3.8-0.5,7.4-1.5,10.8-3c-2.5,3.8-5.7,7.1-9.3,9.7c0,0.8,0,1.6,0,2.4c0,24.8-18.9,53.4-53.4,53.4c-10.6,0-20.4-3.1-28.7-8.4
			c1.5,0.2,3,0.3,4.5,0.3c8.8,0,16.9-3,23.3-8c-8.2-0.1-15.1-5.6-17.5-13c1.1,0.2,2.3,0.3,3.5,0.3c1.7,0,3.4-0.2,4.9-0.7
			c-8.6-1.7-15.1-9.3-15.1-18.4v-0.2c2.5,1.4,5.4,2.2,8.5,2.3c-5-3.4-8.4-9.1-8.4-15.6c0-3.4,0.9-6.7,2.5-9.4
			c9.3,11.4,23.1,18.8,38.6,19.6c-0.3-1.4-0.5-2.8-0.5-4.3C102.2,134.9,110.6,126.5,121,126.5 M149.1,135.3L149.1,135.3 M121,120.5
			c-12.8,0-23.4,9.8-24.6,22.2c-10.8-2.1-20.6-7.9-27.6-16.6c-1.1-1.4-2.9-2.2-4.7-2.2c-0.2,0-0.3,0-0.5,0c-2,0.2-3.7,1.3-4.7,3
			c-2.2,3.8-3.4,8.1-3.4,12.4c0,3.1,0.6,6.1,1.7,9c-1.2,1.1-1.8,2.7-1.8,4.3v0.2c0,6.5,2.6,12.6,6.8,17c-0.3,1.1-0.3,2.3,0,3.5
			c1.6,4.9,4.6,9.1,8.5,12.1c-2.7,0.8-5.6,1.2-8.5,1.2c-1.3,0-2.6-0.1-3.8-0.2c-0.2,0-0.5,0-0.7,0c-2.5,0-4.8,1.6-5.6,4
			c-0.9,2.6,0.1,5.6,2.4,7.1c9.6,6.1,20.6,9.4,32,9.4c17.4,0,33.1-6.9,44.1-19.4c9.6-10.9,15.1-25.2,15.2-39.5
			c3.1-2.6,5.9-5.7,8.2-9.1c0.7-1,1.1-2.2,1.1-3.5c0-2.2-1.2-4.1-2.9-5.2c0-0.1,0.1-0.3,0.1-0.4c0.8-2.4,0-5-2-6.5
			c-1.1-0.9-2.4-1.3-3.7-1.3c-1.1,0-2.1,0.3-3.1,0.8c-2.3,1.3-4.7,2.4-7.2,3.1C132,122.4,126.6,120.5,121,120.5L121,120.5z"/>
	</g>
</g>
</svg>
