<?xml version="1.0" encoding="utf-8"?>
<!-- Generator: Adobe Illustrator 18.0.0, SVG Export Plug-In . SVG Version: 6.00 Build 0)  -->
<!DOCTYPE svg PUBLIC "-//W3C//DTD SVG 1.1//EN" "http://www.w3.org/Graphics/SVG/1.1/DTD/svg11.dtd">
<svg version="1.1" id="Capa_1" xmlns="http://www.w3.org/2000/svg" xmlns:xlink="http://www.w3.org/1999/xlink" x="0px" y="0px"
	 viewBox="0 0 190 212" enable-background="new 0 0 190 212" xml:space="preserve">
<g>
	<circle fill="#EA7200" cx="95" cy="96.2" r="93.2"/>
	<g>
		<path fill="#FFFFFF" d="M131,33.6c-2.3-3.2-4.6-5-4.7-5l-0.9-0.7l-0.6,1c-8.5,14.3-5,24.4-0.6,30.4c0.8,1.1,1.7,2.1,2.4,2.8l9-9
			C137.2,44.2,133.8,37.4,131,33.6"/>
		<path fill="#FFFFFF" d="M158.6,63.3c-0.1-0.1-1.9-2.1-5.1-3.7c-3.3-1.7-7.8-2.9-13.1-1.7l-9.5,9.4c0.7,0.4,1.4,0.9,2.3,1.4
			c4.9,2.5,14.6,5.2,25.3-4.2l0.7-0.6L158.6,63.3z"/>
		<path fill="#FFFFFF" d="M128.4,69.9l-6.5,6.5c5.3,6.4,8.6,14.7,8.6,23.7c0,20.5-16.7,37.2-37.2,37.2S56,120.7,56,100.1
			s16.7-37.2,37.2-37.2c9,0,17.3,3.2,23.8,8.6l6.5-6.5c-8.1-7-18.7-11.3-30.3-11.3c-25.6,0-46.4,20.8-46.4,46.4
			c0,25.6,20.8,46.4,46.4,46.4s46.4-20.8,46.4-46.4C139.6,88.6,135.4,78,128.4,69.9"/>
		<path fill="#FFFFFF" d="M93.2,83.5c3.4,0,6.5,1,9.1,2.7l6.6-6.6c-4.4-3.3-9.8-5.3-15.7-5.3c-14.3,0-25.9,11.6-25.9,25.9
			c0,14.3,11.6,25.9,25.9,25.9c14.3,0,25.9-11.6,25.9-25.9c0-5.9-2-11.3-5.3-15.7l-2.3,2.3l-4.3,4.3l-5.6,5.6l-4.9,4.9
			c-0.3,0.3-0.7,0.6-1.1,0.7c-0.4,0.2-0.9,0.3-1.4,0.3c-0.9,0-1.8-0.3-2.4-1c-1.3-1.3-1.3-3.5,0-4.9l4.7-4.7c-1-0.4-2.2-0.6-3.4-0.6
			c-5.1,0-9.2,4-9.2,8.9c0,4.9,4.1,8.9,9.2,8.9c2.9,0,5.5-1.3,7.2-3.4l9.1-9.1c0.3,1.2,0.4,2.4,0.4,3.6c0,9.2-7.5,16.7-16.7,16.7
			c-9.2,0-16.7-7.5-16.7-16.7C76.5,90.9,84,83.5,93.2,83.5"/>
	</g>
	<g>
		<path fill="#FFFFFF" d="M166,170.7l-46.5-38.8c-1-0.8-2.4-0.2-2.5,1.1l-1.3,60.5c0,1.3,1.4,2.3,2.4,1.5l15.8-10.8
			c0.8-0.5,1.9-0.2,2.3,0.8l9.1,19.9c0.4,0.8,1.3,1.2,2.1,0.9l7-3.2c0.8-0.3,1.1-1.3,0.7-2.1l-9.1-19.9c-0.4-0.9,0-2,0.9-2.2
			l18.6-4.9C166.8,173.3,167.1,171.6,166,170.7z"/>
		<path fill="#383A35" d="M146.9,209L146.9,209c-1.8,0-3.5-1.1-4.2-2.8l-8.4-18.4l-14.4,9.8c-1.8,1.2-4.3,0.9-5.8-0.6
			c-0.9-0.9-1.4-2.2-1.4-3.4l1.3-60.5c0.1-2.5,2-4.4,4.4-4.4c1.1,0,2.1,0.4,2.9,1.1l46.5,38.8c1.4,1.2,2,3,1.6,4.7
			c-0.4,1.7-1.6,2.9-3.2,3.4l-16.8,4.4l8.4,18.4c1.1,2.3,0.1,5.1-2.2,6.1l-7,3.2C148.2,208.8,147.6,209,146.9,209z M134.9,181.1
			c1.8,0,3.5,1.1,4.2,2.8l8.5,18.7l4.3-2l-8.5-18.7c-0.6-1.3-0.6-2.7,0-4c0.6-1.2,1.6-2.1,2.9-2.4l15.9-4.1L120,136.2l-1.1,54.9
			l13.5-9.3C133.1,181.3,134,181.1,134.9,181.1z"/>
	</g>
</g>
</svg>
